<svg width="1243" height="1243" viewBox="0 0 1243 1243" fill="none" xmlns="http://www.w3.org/2000/svg">
<g clip-path="url(#clip0_328_20)">
<path fill-rule="evenodd" clip-rule="evenodd" d="M621.082 1242.23C743.936 1242.24 864.035 1205.83 966.191 1137.58C1068.35 1069.34 1147.97 972.331 1195 858.832C1242.02 745.333 1254.33 620.439 1230.37 499.943C1206.41 379.448 1147.26 268.764 1060.39 181.888C973.524 95.0119 862.846 35.8466 742.353 11.874C621.86 -12.0986 496.965 0.198281 383.461 47.2096C269.957 94.2209 172.943 173.835 104.687 275.984C36.4314 378.133 7.16063e-07 498.228 0 621.082C0.301317 785.717 65.8311 943.524 182.239 1059.94C298.648 1176.37 456.447 1241.91 621.082 1242.23V1242.23Z" fill="url(#paint0_radial_328_20)"/>
<path d="M253.368 217.764C249.21 220.715 244.784 224.471 240.962 227.086C234.792 231.915 230.097 235.804 230.097 235.804C227.012 239.024 223.927 242.511 221.178 245.797C213.935 254.582 208.637 262.63 210.38 263.033C213.733 263.971 204.814 273.293 201.528 278.994C198.242 284.694 208.234 281.676 216.349 279.933C217.954 279.767 219.572 279.767 221.178 279.933C225.47 280.536 227.884 282.951 221.178 286.639C219.347 287.674 217.441 288.571 215.477 289.322C209.136 291.825 202.935 294.668 196.9 297.839C192.273 300.656 189.859 303.673 190.194 308.368C191.468 316.684 180.671 338.614 196.9 331.237L198.443 330.432C206.021 326.744 213.935 322.451 221.178 318.562C227.647 314.871 234.37 311.644 241.297 308.904C242.224 308.541 243.193 308.293 244.181 308.167C250.351 307.228 264.3 315.41 270.537 293.748C276.774 272.086 271.811 270.141 278.45 255.32C278.786 254.717 279.054 254.046 279.389 253.375C284.017 244.523 297.161 224.202 305.276 209.985C312.318 197.578 315.537 189.866 305.947 197.846L305.276 198.45C294.613 207.906 285.157 218.569 278.45 225.275C271.744 231.982 268.994 233.39 268.055 229.97C265.976 221.721 264.166 210.119 253.368 217.764Z" fill="url(#paint1_radial_328_20)"/>
<path d="M355.44 176.449C352.24 177.221 349.287 178.79 346.856 181.01C341.826 184.832 336.461 190.063 333.443 192.075C332.19 192.757 331.057 193.641 330.09 194.691C328.766 196.065 327.719 197.682 327.005 199.452C326.369 202.49 325.088 205.355 323.248 207.854C321.408 210.354 319.053 212.428 316.342 213.938C306.617 220.242 309.032 220.041 306.148 234.057C305.612 237.344 304.941 240.764 304.404 243.379C303.331 249.214 302.795 253.506 304.404 254.11C306.014 254.713 307.556 253.238 311.111 249.817C316.811 244.318 324.524 236.941 330.157 229.698C335.79 222.455 340.619 215.95 339.881 212.127C341.093 206.888 343.377 201.956 346.588 197.642C353.294 187.783 360.805 176.449 355.44 176.449Z" fill="url(#paint2_radial_328_20)"/>
<path d="M187.78 275.359C191.066 272.408 194.486 269.323 197.102 266.238C206.759 256.179 214.605 246.119 221.379 239.413C223.419 237.198 225.64 235.156 228.018 233.31C230.835 231.767 235.529 228.951 240.693 225.53C254.106 216.41 271.275 202.93 262.355 197.363C255.49 194.505 247.87 194.01 240.693 195.955L235.798 197.028C230.124 199.884 225.172 203.988 221.312 209.032C220.842 209.502 220.44 210.038 220.038 210.508C213.666 218.489 204.613 229.554 197.035 239.547C191.606 245.952 186.989 253.002 183.286 260.538C179.598 271 169.404 291.924 187.78 275.359Z" fill="url(#paint3_radial_328_20)"/>
<path d="M387.564 600.553C386.617 599.503 385.38 598.757 384.01 598.407C381.123 597.903 378.151 598.357 375.547 599.702C372.943 601.046 370.851 603.206 369.591 605.851C365.809 609.458 362.598 613.619 360.068 618.191C358.828 620.353 357.73 622.593 356.781 624.898C356.161 626.638 355.712 628.435 355.44 630.263C355.44 632.878 357.653 633.817 360.068 634.287C362.482 634.756 364.226 634.689 366.036 635.024C371.133 635.963 374.486 640.524 378.242 644.346C379.835 646.107 381.807 647.483 384.01 648.37C385.321 648.898 386.732 649.135 388.145 649.066C389.557 648.996 390.938 648.622 392.191 647.968C393.71 642.334 394.165 636.466 393.533 630.665C393.533 627.178 393.063 623.959 393.063 620.002C392.661 612.692 391.99 604.711 387.564 600.553Z" fill="url(#paint4_radial_328_20)"/>
<path d="M312.72 366.505L311.178 367.109C309.091 368.13 307.327 369.709 306.081 371.669C305.679 372.273 305.343 372.876 304.941 373.413C297.631 384.814 286.968 394.002 285.895 403.256C284.822 412.511 293.674 420.559 299.307 413.115C300.639 411.153 302.467 409.58 304.606 408.555C307.49 407.756 310.521 407.641 313.458 408.219C317.012 408.219 324.121 406.476 323.652 391.252C323.652 380.991 315 388.033 316.543 368.785C317.348 365.969 315.202 365.566 312.72 366.505Z" fill="url(#paint5_radial_328_20)"/>
<path d="M164.576 942.38C166.573 940.718 168.413 938.878 170.075 936.881C170.745 929.503 155.924 920.718 151.9 922.998C141.975 929.705 127.355 909.585 132.452 900.196C137.549 890.807 141.304 877.126 128.227 874.31C115.149 871.493 103.413 870.085 108.107 860.897C112.802 851.709 132.72 836.351 122.727 834.071C112.735 831.791 109.315 831.992 98.182 839.034C87.0493 846.076 58.9494 847.618 58.2788 823.609C57.6081 799.6 66.0582 773.043 75.5813 773.043C85.1045 773.043 94.4264 766.739 107.437 772.238C120.447 777.737 119.441 769.555 125.41 768.818C131.379 768.08 153.51 766.336 155.924 779.481C158.339 792.626 156.863 814.69 161.96 815.629C167.057 816.567 178.994 802.216 171.886 780.42C171.193 777.866 171.175 775.177 171.833 772.614C172.492 770.051 173.804 767.704 175.641 765.8C181.816 759.388 189.112 754.16 197.169 750.375C207.631 744.675 217.757 740.181 219.702 736.493C220.349 735.456 220.931 734.381 221.446 733.274C225.067 725.293 225.872 715.636 236.804 705.308C238.201 703.987 239.679 702.755 241.23 701.619C253.771 692.499 268.056 689.883 270.671 685.122C272.942 681.465 275.522 678.01 278.383 674.794C285.09 666.88 294.278 657.826 297.698 658.095C302.527 658.765 301.454 673.184 305.209 674.593C305.523 674.742 305.867 674.819 306.215 674.819C306.563 674.819 306.907 674.742 307.221 674.593C310.172 673.117 320.634 667.886 330.895 661.984C336.617 658.823 342.107 655.26 347.325 651.321C350.008 649.108 351.55 647.23 351.081 646.09C350.759 645.292 350.25 644.582 349.596 644.022C348.943 643.462 348.164 643.067 347.325 642.871C343.235 641.463 336.93 641.798 332.035 639.987L330.895 639.451C325.127 635.896 327.273 625.434 330.895 619.332V618.929C334.694 611.98 340.302 606.187 347.124 602.163C347.951 601.811 348.841 601.628 349.74 601.627C353.212 601.99 356.719 601.809 360.135 601.09C363.68 600.32 367.048 598.887 370.06 596.865C372.34 595.457 378.108 592.908 384.01 589.421C388.116 587.132 391.904 584.314 395.276 581.038C397.988 578.546 399.724 575.17 400.172 571.515C400.172 558.773 403.056 554.95 396.618 546.232L395.276 544.086C389.241 532.685 384.211 501.232 386.692 481.917C388.972 465.419 388.838 455.091 384.01 460.457C382.271 462.507 380.785 464.758 379.583 467.163C373.749 477.692 365.03 486.813 360.068 486.746C357.318 486.746 355.708 483.929 356.312 477.021C358.123 456.902 361.007 443.489 355.44 436.783C351.215 432.088 351.349 428.333 347.057 426.053C345.729 425.356 344.305 424.859 342.832 424.577C337.802 423.37 334.181 419.48 330.626 419.883C328.078 419.883 325.597 422.498 322.646 429.54C317.622 443.322 311.708 456.763 304.941 469.779C303.825 471.791 302.499 473.68 300.984 475.412C294.278 482.118 303.801 502.238 293.674 513.974C288.91 518.573 283.698 522.685 278.115 526.247C270.805 531.343 264.702 535.703 263.093 540.867C261.081 549.384 261.55 580.032 247.601 572.588C233.652 565.144 253.1 540.464 251.558 534.562C250.954 531.813 246.193 530.606 240.962 529.264C235.731 527.923 227.549 525.978 226.342 521.418C225.135 517.576 223.445 513.903 221.312 510.486C216.886 502.975 211.252 495.196 207.899 489.026C204.412 481.649 206.759 468.907 220.909 450.732C225.226 445.53 229.839 440.582 234.725 435.911C236.804 433.765 238.95 431.552 241.431 429.205C253.234 417.737 266.714 406.604 278.585 396.679C288.076 389.215 297.04 381.103 305.41 372.401C306.521 371.125 307.551 369.781 308.495 368.377C314.537 361.178 322.316 355.638 331.096 352.282C337.007 349.881 342.419 346.402 347.057 342.021C347.812 341.151 348.403 340.151 348.801 339.07C350.88 333.705 355.507 324.115 360.068 315.196C364.023 308.674 366.984 301.599 368.853 294.204C367.981 291.991 368.317 276.969 360.403 281.865C357.186 284.189 354.414 287.074 352.221 290.382C350.612 292.528 349.002 294.763 347.392 297.088C341.156 305.136 335.321 313.452 330.626 319.89C323.451 329.547 318.555 334.778 318.89 328.273C319.829 318.75 329.956 297.021 330.626 286.962V284.95C330.633 283.949 330.248 282.986 329.553 282.267C326.133 279.45 327.273 268.854 330.626 258.191C332.51 252.056 335.05 246.142 338.205 240.553C340.708 236.074 343.675 231.87 347.057 228.012C351.148 223.251 355.641 218.69 360.068 214.063C363.943 209.992 367.572 205.692 370.932 201.186C375.653 195.35 380.02 189.237 384.01 182.878C385.485 179.927 385.686 177.58 384.01 175.836C383.372 175.208 382.621 174.707 381.796 174.361C375.09 171.812 368.384 177.781 360.068 188.981C357.318 192.736 354.434 197.096 351.483 201.924C349.874 204.271 348.466 206.484 347.057 208.631C340.351 218.623 335.925 227.14 330.626 235.456C327.81 239.95 324.859 244.443 321.372 248.869C314.554 259.124 309.035 270.184 304.941 281.798C301.661 291.388 296.958 300.43 290.991 308.623C287.07 313.539 282.764 318.137 278.115 322.371C275.641 324.584 272.719 326.239 269.548 327.222C266.377 328.206 263.032 328.496 259.74 328.072C251.692 327.401 246.327 321.365 240.962 317.61C238.596 315.818 235.67 314.929 232.707 315.101C229.745 315.273 226.941 316.496 224.799 318.549L221.312 321.902C214.605 326.328 205.686 332.297 197.035 337.193C190.425 341.488 183.151 344.66 175.507 346.582C172.556 346.582 171.282 345.576 172.623 341.954C173.852 338.729 174.817 335.41 175.507 332.029C176.756 326.895 176.756 321.537 175.507 316.403C175.079 314.345 173.933 312.507 172.275 311.217C170.616 309.927 168.553 309.269 166.453 309.361C154.248 310.367 138.957 317.409 138.756 312.848C138.555 308.288 148.279 293.802 135.201 302.52C122.124 311.239 86.0433 339.473 78.5322 341.351C74.8785 341.633 71.2429 340.611 68.2713 338.467C27.502 418.24 4.44764 505.88 0.685805 595.388C-3.07603 684.897 12.5435 774.161 46.4755 857.074C49.7464 859.607 53.3883 861.62 57.2728 863.043C75.1789 868.945 113.271 888.93 114.21 895.569C115.149 902.208 139.896 933.393 146.066 935.808C152.236 938.222 153.175 929.906 157.601 930.509C162.027 931.113 163.637 940.301 164.576 942.38Z" fill="url(#paint6_radial_328_20)"/>
<path d="M282.34 166.793C293.674 165.251 291.193 171.354 288.108 177.255C285.023 183.157 294.814 176.92 304.941 171.152C307.691 169.677 310.44 168.135 313.123 166.793C319.829 162.971 325.127 161.093 330.627 157.606C336.539 153.817 341.663 148.921 345.716 143.187L347.057 141.175C353.417 132.684 357.856 122.914 360.068 112.538C360.068 111.063 360.671 109.588 361.007 107.978C361.476 105.228 361.007 103.82 360.068 103.485C357.922 102.68 353.361 106.301 347.057 111.868C343.771 114.886 340.351 118.574 336.394 122.263C334.608 124.11 332.679 125.814 330.627 127.36C321.573 134.066 320.165 127.963 322.445 123C324.725 118.038 315.202 123.403 315.202 123.403C311.849 127.024 308.495 130.78 305.008 134.401C288.376 152.442 272.951 168.537 282.34 166.793Z" fill="url(#paint7_radial_328_20)"/>
<path d="M395.276 129.23L394.673 129.833C390.866 133.389 387.303 137.198 384.01 141.234C379.047 147.471 376.431 152.568 377.303 154.647C378.175 156.726 379.852 162.158 384.01 159.006C387.941 154.761 391.015 149.797 393.063 144.386C393.958 142.508 394.695 140.832 395.276 139.356C401.379 125.005 397.087 127.754 395.276 129.23Z" fill="url(#paint8_radial_328_20)"/>
<path d="M357.452 83.2274C358.381 82.8733 359.261 82.3999 360.068 81.819C369.01 75.1173 377.057 67.2964 384.01 58.5478C385.619 56.3346 386.29 54.658 385.552 54.1215C385.09 53.8281 384.557 53.6658 384.01 53.6521C378.645 52.8473 368.853 61.5657 368.853 61.5657C365.448 64.7897 362.533 68.4952 360.202 72.5642C356.446 78.4658 354.032 84.1663 357.452 83.2274Z" fill="url(#paint9_radial_328_20)"/>
<path d="M946.074 124.744C946.892 126.781 948.179 128.596 949.83 130.042C951.842 133.06 955.598 130.78 956.536 126.019C957.945 117.77 959.353 109.454 960.829 101.138C952.513 95.6384 943.995 90.4074 935.411 85.3105C936.819 92.017 938.161 98.7234 939.703 105.43C940.978 112.118 943.12 118.611 946.074 124.744V124.744Z" fill="url(#paint10_radial_328_20)"/>
<path d="M745.217 762.053C743.365 767.077 742.236 772.338 741.864 777.679C741.864 781.032 745.016 784.386 747.766 779.155C747.766 778.819 747.766 778.417 748.302 778.015C758.295 755.95 751.387 757.895 751.387 757.895C750.082 757.958 748.823 758.401 747.766 759.169C746.667 759.878 745.785 760.876 745.217 762.053V762.053Z" fill="url(#paint11_radial_328_20)"/>
<path d="M439.539 45.3996C444.904 44.4607 455.969 30.9808 459.054 21.3906L446.044 25.0792C443.63 29.5725 441.081 34.4681 439.337 38.492C437.594 42.5158 437.258 45.6679 439.539 45.3996Z" fill="url(#paint12_radial_328_20)"/>
<path d="M424.986 52.4447C429.144 46.4089 435.045 37.3553 439.539 29.3746L441.148 26.8262H439.539C431.692 29.2405 423.913 31.7889 416.133 34.4715C415.907 35.2573 415.868 36.0852 416.019 36.8889C416.17 37.6925 416.508 38.4494 417.005 39.0989C422.504 45.403 417.475 62.3031 424.986 52.4447Z" fill="url(#paint13_radial_328_20)"/>
<path d="M240.961 879.208C239.24 879.088 237.51 879.293 235.864 879.812C235.395 879.812 235.194 880.416 234.523 880.55C234.523 881.891 235.395 882.83 236.066 883.635C237.559 884.711 239.21 885.548 240.961 886.116C241.908 886.352 242.898 886.352 243.845 886.116C246.729 885.177 248.674 880.751 246.461 878.672C246.461 879.611 246.461 880.416 246.058 880.952C244.511 879.996 242.769 879.401 240.961 879.208Z" fill="url(#paint14_radial_328_20)"/>
<path d="M377.84 107.305C378.511 104.623 374.956 104.421 374.956 104.421C372.072 111.128 363.086 125.815 360.068 133.259C358.794 136.21 358.592 138.088 360.068 137.886C365.835 136.948 364.293 139.831 363.421 145.867C362.549 151.903 370.53 153.982 384.01 131.582L385.15 129.705C389.308 122.998 392.728 117.097 395.277 112.268C401.983 99.4586 403.123 93.6241 397.959 96.8431L395.277 98.3856C391.722 100.599 387.43 103.281 384.01 105.092C380.59 106.903 377.37 108.646 377.84 107.305Z" fill="url(#paint15_radial_328_20)"/>
<path d="M1146.26 325.996C1143.82 314.973 1144.57 303.483 1148.41 292.867C1144.32 286.16 1140.09 279.454 1135.8 273.418C1122.39 313.656 1123.19 329.148 1133.85 339.677C1144.52 350.206 1155.78 362.144 1146.26 325.996Z" fill="url(#paint16_radial_328_20)"/>
<path d="M651.73 416.204C650.187 418.686 660.649 417.68 663.936 419.021C667.222 420.362 669.703 425.325 672.788 427.806C674.398 428.879 678.354 426.599 682.982 423.38C688.682 419.356 695.523 413.857 700.284 411.308L701.156 410.839C703.983 409.592 706.484 407.71 708.466 405.34C711.393 401.493 713.659 397.187 715.173 392.598C715.246 386.43 714.865 380.266 714.033 374.155C712.856 370.784 710.982 367.699 708.533 365.101L708.064 364.229C706.119 361.212 701.693 368.052 700.351 372.948C698.809 377.709 696.998 373.484 695.255 370.466C693.511 367.448 690.56 367.784 685.463 374.088L683.049 376.972C681.976 378.179 682.646 376.972 683.049 374.96C683.121 374.157 683.121 373.348 683.049 372.545C683.15 372.059 683.15 371.557 683.049 371.07C682.244 369.595 679.427 374.155 676.879 380.526C674.331 386.897 672.855 375.429 673.995 369.863C675.135 364.296 670.24 362.486 668.429 363.156C663.611 367.274 659.489 372.143 656.223 377.575C650.523 385.623 655.15 384.282 656.693 384.282C658.235 384.282 664.875 383.007 665.143 386.226C665.411 389.446 659.576 390.988 653.407 391.525C647.237 392.061 654.48 396.688 658.705 397.024C662.93 397.359 660.247 403.73 659.576 407.352C658.906 410.973 653.071 413.522 651.73 416.204Z" fill="url(#paint17_radial_328_20)"/>
<path d="M567.162 384.814C585.068 369.188 609.48 332.638 634.226 326.401C652.409 322.951 669.323 314.656 683.183 302.392C690.088 295.7 695.923 287.988 700.486 279.524C703.596 273.743 706.264 267.734 708.466 261.55V261.081C717.587 234.725 733.213 194.486 747.766 150.894C749.979 144.188 752.192 137.482 754.472 130.775C765.675 97.0899 774.636 62.7002 781.298 27.8316C781.7 25.5962 782.17 23.3607 782.706 21.1252C773.317 18.6438 763.861 16.2966 754.338 14.4188L747.632 13.0775C734.688 10.3949 721.611 8.0477 708.332 6.3711L700.284 5.02981C694.517 4.29211 688.749 3.62147 682.982 3.08495C662.594 1.07303 642.006 0 621.082 0C601.186 0 581.514 0.938899 562.065 2.8167C551.067 13.0775 544.695 22.1982 548.652 30.1789C555.359 43.5917 549.122 55.4621 542.482 65.3876C535.843 75.3131 528.533 95.2312 533.63 99.5903C538.727 103.949 542.013 102.474 542.013 102.474C562.132 98.6514 577.691 73.5023 562.132 140.701C548.719 207.765 554.621 222.318 542.013 253.503C534.963 269.391 526.968 284.844 518.071 299.777C506.335 320.701 494.867 341.826 491.983 357.989C487.154 386.893 486.216 481.99 502.378 473.473C508.671 468.752 513.96 462.825 517.937 456.036C533.965 433.369 553.95 395.679 567.162 384.814Z" fill="url(#paint18_radial_328_20)"/>
<path d="M671.245 617.858C675.405 617.349 679.407 615.954 682.982 613.767C685.568 611.919 688.517 610.639 691.633 610.012C693.913 610.347 697.736 605.72 700.284 599.483C701.14 597.313 701.791 595.067 702.229 592.776C703.782 587.823 705.873 583.056 708.466 578.559C709.042 577.451 709.343 576.22 709.343 574.971C709.343 573.722 709.042 572.491 708.466 571.383C707.636 570.021 706.402 568.952 704.934 568.327C703.467 567.702 701.841 567.551 700.284 567.896C699.44 568.017 698.609 568.219 697.803 568.499C696.649 568.859 695.65 569.597 694.969 570.596C694.287 571.594 693.962 572.793 694.047 573.998C694.047 576.48 693.175 578.559 688.95 578.425C686.67 578.425 684.658 577.955 682.982 577.754C679.695 577.352 677.751 577.285 677.885 579.565C678.542 585.788 678.248 592.074 677.013 598.209C675.47 602.836 663.935 618.06 671.245 617.858Z" fill="url(#paint19_radial_328_20)"/>
<path d="M740.121 622.427C743.206 618.805 749.174 607.74 744.748 607.404C740.322 607.069 738.042 599.021 738.779 595.936C739.517 592.851 735.896 583.194 736.834 577.158C737.773 571.123 739.048 566.495 735.896 562.27C732.744 558.045 735.493 554.692 739.249 548.187C743.004 541.681 746.76 534.774 739.249 533.969C731.738 533.164 733.481 529.543 738.109 524.245C742.736 518.947 742.803 514.722 737.036 515.325C731.268 515.929 724.428 523.641 722.885 526.927C722.121 529.517 720.818 531.917 719.062 533.969C717.118 535.109 712.893 541.346 714.904 541.547C716.916 541.748 717.118 544.766 714.904 547.248C712.691 549.729 712.021 553.954 712.691 553.954C713.362 553.954 716.648 559.453 713.094 559.051C712.294 558.906 711.474 558.92 710.68 559.092C709.886 559.265 709.133 559.593 708.466 560.057C708.312 560.183 708.188 560.341 708.102 560.521C708.017 560.701 707.973 560.897 707.973 561.096C707.973 561.295 708.017 561.492 708.102 561.672C708.188 561.852 708.312 562.01 708.466 562.136C708.772 562.45 709.137 562.7 709.539 562.874C711.505 564.333 713.816 565.257 716.246 565.556C716.246 565.556 720.001 567.032 716.916 569.513C713.831 571.994 709.338 580.176 713.563 580.377C717.788 580.579 720.27 583.999 719.13 586.48C718.381 587.474 717.856 588.618 717.59 589.833C717.324 591.048 717.323 592.306 717.587 593.522C718.727 596.54 717.587 594.796 713.362 596.339C709.137 597.881 710.814 601.972 708.533 607.538V608.142C706.052 614.044 704.308 611.562 701.827 614.848L700.284 617.263C699.413 618.47 699.144 619.14 700.284 620.079C700.988 620.56 701.728 620.986 702.498 621.354C704.44 621.988 706.439 622.437 708.466 622.695C709.003 622.695 709.07 623.164 708.466 623.835C707.044 625.228 705.494 626.485 703.839 627.591L700.284 630.139C692.974 635.504 689.755 638.991 691.834 641.138C693.913 643.284 697.065 639.059 700.284 638.455C700.639 638.388 701.003 638.388 701.358 638.455C703.772 638.455 705.985 635.37 708.466 633.626C708.975 633.189 709.583 632.881 710.237 632.729C710.891 632.577 711.572 632.586 712.222 632.755C718.154 634.653 724.374 635.493 730.598 635.236C734.152 633.693 742.133 627.389 738.377 627.054C734.621 626.719 737.036 625.847 740.121 622.427Z" fill="url(#paint20_radial_328_20)"/>
<path d="M708.667 772.515C712.021 772.917 712.691 766.278 710.679 765.272C709.97 764.985 709.176 764.985 708.466 765.272C707.603 765.66 706.791 766.156 706.052 766.747C704.308 768.223 705.314 771.576 708.466 772.247L708.667 772.515Z" fill="url(#paint21_radial_328_20)"/>
<path d="M1060.15 1044.39C1059.24 1050.26 1058.66 1056.17 1058.41 1062.1C1142.37 978.829 1200.85 873.345 1226.99 758.016C1253.12 642.687 1245.82 522.297 1205.95 410.97C1201.49 404.741 1197.82 397.983 1195.02 390.85C1189.72 379.248 1179.12 375.426 1171.81 368.987C1164.5 362.549 1159.81 366.506 1163.16 369.926C1166.51 373.347 1167.99 386.894 1160.95 388.771C1154.2 390.362 1147.2 390.613 1140.36 389.509C1133.05 388.973 1131.24 392.393 1123.06 384.211C1119.1 380.187 1112.86 381.528 1106.22 385.552C1098.82 390.539 1092.07 396.418 1086.1 403.056C1073.97 416.469 1076.18 416.469 1071.95 412.177C1067.73 407.885 1073.3 398.764 1078.66 396.215C1084.03 393.667 1075.78 379.852 1073.97 377.37C1072.16 374.889 1065.58 384.077 1062.7 393.935C1059.82 403.794 1061.83 414.055 1060.49 419.956C1059.14 425.858 1055.79 424.181 1050.96 418.816C1046.13 413.451 1033.93 429.68 1029.7 432.9C1025.48 436.119 1028.16 439.002 1029.7 447.385C1030.58 451.409 1027.62 451.543 1023.94 450.001C1020.39 448.422 1017.19 446.141 1014.55 443.294L1013.94 442.49C1012.07 440.008 1010.46 439.673 1009.32 440.545C1008.54 441.535 1008.01 442.698 1007.78 443.935C1007.54 445.173 1007.61 446.448 1007.97 447.654C1008.29 449.079 1008.74 450.471 1009.32 451.812C1010.83 454.561 1011.75 457.601 1012 460.731C1012 463.078 1010.99 463.95 1009.32 464.084C1007.82 464.073 1006.33 463.847 1004.89 463.414C1002.61 461.595 1000.74 459.318 999.403 456.73C998.063 454.142 997.282 451.301 997.11 448.391C997.826 439.394 999.012 430.439 1000.66 421.566V421.029C999.994 416.804 989.599 398.764 992.282 396.081C993.355 395.142 998.049 401.245 1003.55 407.482C1005.34 409.829 1007.26 412.069 1009.32 414.189C1010.96 415.863 1012.71 417.431 1014.55 418.883C1016.02 420.003 1017.62 420.949 1019.31 421.7C1020.8 422.247 1022.36 422.608 1023.94 422.773C1027.46 423.199 1031.03 422.494 1034.13 420.761C1044.52 414.457 1045.87 400.642 1043.18 391.253C1041.04 385.169 1038.06 379.414 1034.33 374.151C1030.91 369.122 1027.62 364.159 1023.94 359.733C1022.59 358.123 1021.19 356.581 1019.71 355.105C1018.1 354.062 1016.55 352.92 1015.08 351.685L1014.55 351.349C1012.87 350.075 1011.06 348.868 1009.32 347.728C1001.71 343.671 995.361 337.62 990.94 330.224V330.224C991.047 329.13 991.271 328.051 991.611 327.005C993.01 325.217 994.741 323.714 996.708 322.579C997.395 322.067 997.898 321.345 998.14 320.523C998.382 319.7 998.35 318.821 998.049 318.019C996.501 314.174 994.065 310.75 990.94 308.026C986.938 304.397 981.842 302.203 976.455 301.789C966.177 301.797 956.03 304.088 946.745 308.495C939.765 310.518 933.28 313.967 927.699 318.622C924.981 320.606 922.466 322.852 920.188 325.329C915.036 331.151 910.37 337.387 906.238 343.972C895.776 360.537 886.119 378.376 875.121 395.344C872.17 399.971 869.219 404.531 866.134 408.756C858.075 420.797 848.866 432.027 838.638 442.289C836.492 444.39 834.256 446.335 831.931 448.123C826.834 452.348 805.106 463.347 805.106 473.272C802.139 488.355 798.355 503.265 793.772 517.937C788.675 536.782 803.764 536.983 807.721 534.502C814.013 530.128 819.874 525.165 825.225 519.681C833.004 512.974 827.706 527.259 827.706 532.624C828.487 542.31 828.487 552.044 827.706 561.73C826.164 572.393 825.225 580.91 830.12 581.849C833.004 581.849 835.284 578.965 838.503 576.216C840.225 574.595 842.287 573.38 844.539 572.661C852.05 570.247 856.007 551.603 857.55 545.299C860.534 538.268 866.174 532.701 873.243 529.807C873.942 529.472 874.577 529.018 875.121 528.466C880.217 523.503 879.614 510.56 877.669 506.402C876.619 504.248 875.766 502.003 875.121 499.696C874.446 496.897 874.446 493.977 875.121 491.178C875.121 490.306 875.523 489.368 875.858 488.362C881.265 475.779 889.369 464.538 899.599 455.433C906.696 449.395 912.162 441.669 915.493 432.967C916.717 429.358 918.289 425.876 920.188 422.572C922.219 418.748 924.745 415.208 927.699 412.043C932.125 406.946 937.691 414.926 941.849 421.566C946.007 428.205 937.021 434.979 932.997 438.533C928.504 442.786 924.229 447.262 920.188 451.946C916.917 455.559 913.423 458.964 909.726 462.14C903.757 466.7 904.897 472.803 904.428 479.241C903.067 488.461 901.005 497.563 898.258 506.469C897.927 509.617 898.407 512.798 899.651 515.709C900.895 518.619 902.863 521.164 905.367 523.101C908.116 525.783 913.414 521.693 920.456 518.071C923.13 516.673 925.938 515.549 928.839 514.718C939.703 511.901 940.173 517.199 940.575 518.943C940.978 520.687 946.142 522.363 947.282 524.241C948.422 526.119 944.398 525.985 941.514 525.582C938.63 525.18 934.808 533.228 928.906 531.283C926.245 530.451 923.502 529.911 920.724 529.673C917.119 529.182 913.465 529.182 909.86 529.673C905.635 530.277 903.153 535.24 901.879 541.342C900.605 547.445 905.635 548.049 905.232 551C903.986 556.25 901.878 561.259 898.995 565.821C896.984 566.424 895.709 564.547 894.368 559.114C893.027 553.682 887.662 556.096 885.515 558.175C880.596 564.786 877.226 572.418 875.657 580.508V580.977C872.572 593.585 874.316 592.982 871.231 592.982C868.146 592.982 865.665 595.664 863.25 599.688C860.836 603.712 857.483 601.767 855.068 597.006C852.654 592.244 853.526 592.445 848.362 594.725C845.341 595.729 842.385 596.916 839.509 598.28C835.851 600.206 831.875 601.455 827.773 601.968C823.146 601.968 824.018 596.872 821.603 594.524C819.189 592.177 813.824 598.548 810.739 599.688C807.654 600.828 809.867 597.207 811.41 594.927C812.952 592.646 810.068 592.646 807.185 592.646C804.301 592.646 804.301 589.83 805.642 584.263C806.983 578.697 809.867 583.123 811.879 582.922C813.891 582.721 810.538 578.563 810.94 574.405C811.342 570.247 813.153 575.143 814.495 578.965C815.247 582.388 817.025 585.499 819.591 587.885C822.073 589.964 822.676 577.624 824.688 574.472C826.7 571.32 826.901 565.485 822.945 566.223C821.807 566.522 820.598 566.376 819.564 565.815C818.531 565.255 817.749 564.322 817.378 563.205C815.724 559.049 815.724 554.418 817.378 550.262C819.994 540.739 816.238 544.025 814.495 546.305C812.751 548.585 809.398 549.323 801.618 556.901C793.839 564.48 794.509 569.845 796.723 574.807C798.936 579.77 795.851 588.891 795.649 595.53C795.448 602.17 786.998 600.895 780.56 600.694C774.122 600.493 774.591 602.237 773.049 604.651C771.506 607.065 768.623 608.272 768.623 607.132C768.623 605.992 765.739 607.937 764.666 611.559C762.521 617 759.201 621.901 754.942 625.91V625.91C753.156 627.614 750.998 628.878 748.637 629.599C745.895 630.41 743.311 631.68 740.992 633.354C737.035 636.976 733.883 642.073 729.927 644.957C725.97 647.84 725.702 650.858 719.062 650.456C712.423 650.053 716.178 646.298 713.965 646.298C711.752 646.298 712.222 650.657 711.551 655.955C711.52 656.612 711.292 657.244 710.897 657.77C710.503 658.296 709.96 658.692 709.338 658.906C706.599 659.061 703.906 658.147 701.827 656.357H701.156C699.315 655.94 697.399 655.979 695.576 656.47C693.753 656.96 692.077 657.889 690.694 659.174C687.877 661.052 690.09 667.155 694.248 669.636C697.567 671.86 699.954 675.225 700.955 679.092C701.424 680.635 701.961 682.378 702.497 684.457C704.912 694.517 702.9 697.87 702.9 697.87C702.497 699.346 701.827 701.357 700.955 703.638C698.004 711.216 693.175 721.208 690.09 721.812C687.808 721.8 685.542 721.415 683.384 720.672C680.232 719.8 675.672 718.526 667.892 716.849C656.357 714.569 653.943 714.234 649.517 715.508C647.48 716.474 645.874 718.16 645.007 720.24C644.14 722.321 644.074 724.649 644.822 726.775C646.432 731.134 642.408 742.2 639.524 750.381C636.64 758.563 631.141 761.984 629.33 772.647C627.52 783.31 627.788 783.846 633.757 784.383C639.725 784.919 644.621 787.468 644.219 794.51C643.816 801.551 650.925 796.991 657.229 793.705C663.533 790.419 669.233 795.247 676.543 789.547C679.173 787.744 681.446 785.47 683.25 782.841C685.556 779.012 687.488 774.969 689.017 770.769C692.078 764.74 695.96 759.166 700.552 754.204V754.204C702.826 751.789 705.626 749.93 708.734 748.772C711.899 747.914 714.787 746.25 717.117 743.943C720.471 739.785 721.812 729.323 726.439 728.384C731.067 727.445 737.304 733.682 741.529 732.542C743.885 731.8 746.138 730.764 748.235 729.457C750.314 728.25 752.594 726.909 754.942 725.769C757.384 724.125 760.194 723.112 763.123 722.818C767.55 723.422 768.22 742.267 769.83 748.906C771.439 755.545 787.132 771.171 787.535 781.03C787.912 784.08 787.277 787.171 785.726 789.825C784.174 792.478 781.794 794.549 778.951 795.717C776.939 797.259 768.757 794.979 766.946 793.235C765.135 791.492 761.246 794.979 762.117 797.393C762.989 799.808 768.086 802.557 771.171 808.66C774.256 814.763 777.877 806.581 778.951 801.954C780.024 797.326 782.237 800.814 784.919 800.21C787.602 799.607 790.016 793.504 792.9 789.212C795.784 784.919 792.9 781.03 795.515 776.805C798.131 772.58 799.271 773.787 802.222 777.811C805.173 781.835 805.776 776.805 806.179 774.525C806.581 772.244 796.253 761.112 795.985 757.423C795.717 753.735 792.43 754.405 790.687 754.204C788.943 754.003 786.931 746.022 786.462 741.261C785.992 736.499 779.755 724.293 784.517 715.776C789.278 707.259 795.314 711.954 796.655 717.453C798.488 725.487 801.093 733.326 804.435 740.858C807.05 745.419 820.597 747.162 814.629 766.343C808.66 785.523 809.733 791.827 814.629 792.632C819.524 793.437 813.757 801.753 816.641 815.232C819.524 828.712 825.694 812.818 827.237 806.917C828.779 801.015 830.791 808.392 833.943 807.855C837.095 807.319 833.943 794.443 833.541 786.328C833.195 785.289 833.071 784.19 833.176 783.101C833.28 782.011 833.612 780.956 834.149 780.002C834.685 779.048 835.416 778.218 836.293 777.563C837.17 776.908 838.174 776.445 839.241 776.201C840.851 775.598 842.93 775.128 845.277 774.525C854.331 771.909 853.861 782.706 852.989 786.529C851.136 793.905 849.88 801.418 849.234 808.996C848.094 819.256 860.769 829.517 866.738 827.438C870.963 825.694 873.444 825.627 875.724 827.908C876.578 828.742 877.342 829.664 878.004 830.657C882.028 835.419 883.571 833.742 887.997 830.657C889.762 829.488 891.85 828.902 893.966 828.981C895.347 828.916 896.718 829.256 897.909 829.959C899.1 830.662 900.06 831.697 900.672 832.937C902.684 837.498 886.521 862.244 883.839 868.146C883.147 870.017 882.271 871.814 881.223 873.511C879.799 875.977 877.881 878.123 875.59 879.815C874.62 880.534 873.444 880.922 872.237 880.922C871.029 880.922 869.854 880.534 868.884 879.815C861.775 875.054 851.849 878.675 846.752 880.419C844.078 880.816 841.354 880.141 839.174 878.541C829.557 872.605 820.569 865.707 812.348 857.952C795.515 843.265 791.089 867.073 791.089 867.073C789.077 875.456 785.322 878.139 781.834 875.993C778.347 873.847 779.353 870.292 773.585 869.286C770.876 868.524 768.526 866.825 766.954 864.491C765.381 862.157 764.689 859.341 765.001 856.544C765.001 853.124 759.904 850.307 754.606 847.692L747.9 844.472C746.224 843.667 744.685 842.603 743.339 841.32C738.712 836.76 743.809 828.779 747.564 815.434V814.227C749.711 806.313 749.107 802.759 747.564 800.814C746.738 800.005 745.686 799.468 744.547 799.271C732.466 798.467 720.345 798.467 708.265 799.271L702.296 799.741H700.083C694.203 800.364 688.404 801.601 682.78 803.429C675.267 806.674 667.267 808.645 659.107 809.264C649.315 807.922 647.572 799.607 644.219 799.607C640.865 799.607 641.603 814.629 630.806 818.385C613.101 825.091 609.546 845.814 606.931 852.855C604.315 859.897 581.648 869.756 578.965 874.182C576.283 878.608 554.42 904.428 549.993 910.665C545.567 916.902 545.366 919.048 545.768 942.051C546.035 948.282 545.058 954.505 542.893 960.354C540.728 966.204 537.42 971.563 533.16 976.12C533.16 977.662 531.148 996.239 540.269 1007.17C546.002 1014.54 549.033 1023.65 548.853 1032.99C549.323 1037.95 570.582 1077.72 580.977 1071.28C591.372 1064.85 613.57 1076.05 613.57 1076.05C631.946 1067.86 645.426 1071.28 650.321 1076.38C655.217 1081.48 647.438 1091.07 661.856 1091.27C682.848 1091.27 669.569 1122.99 669.569 1122.99C665.813 1133.45 661.387 1134.26 664.472 1142.77C673.443 1164.76 678 1188.3 677.885 1212.05C678.021 1221.53 676.218 1230.93 672.587 1239.68L682.512 1238.81C688.28 1238.18 694.047 1237.51 699.815 1236.8L707.997 1235.72C721.409 1233.85 734.509 1231.61 747.296 1229.02L754.003 1227.61C768.22 1224.53 782.304 1220.9 796.119 1216.81C804.368 1214.4 812.55 1211.85 820.664 1209.1C821.268 1205.81 822.006 1202.39 822.81 1199.24C826.539 1191.19 831.801 1183.95 838.302 1177.92C849.301 1166.18 863.921 1153.03 874.785 1143.65L885.314 1134.53C896.38 1125.07 909.39 1102.4 917.438 1086.78C918.243 1084.83 919.115 1083.15 919.852 1081.61C920.74 1079.91 921.481 1078.14 922.066 1076.31C923.809 1071.95 923.809 1069.61 922.066 1069.27C921.273 1069.07 920.444 1069.07 919.651 1069.27C915.627 1070.14 908.519 1073.97 901.477 1075.98C888.064 1080 879.547 1077.32 878.205 1060.62C877.89 1055.14 876.666 1049.74 874.584 1044.66C871.384 1038.59 868.822 1032.21 866.939 1025.61C864.256 1011.11 863.579 996.306 864.927 981.619C865.796 967.055 864.895 952.441 862.244 938.094C862.244 935.814 861.641 933.668 861.372 931.991C859.223 922.749 858.031 913.311 857.818 903.824C857.416 890.411 861.372 902.885 861.641 907.848C861.909 912.811 864.055 913.347 868.884 913.146C869.353 913.146 869.823 913.146 870.493 913.549C872.438 913.549 873.645 916.566 874.584 921.663C876.73 934.003 876.797 958.28 879.346 979.003C882.431 1008.11 887.527 1024.27 883.302 1047.68C879.815 1065.72 901.678 1056.66 919.651 1047.68L929.376 1042.92C931.119 1042.18 932.729 1041.64 933.802 1041.04C950.903 1033.26 974.04 1013.81 990.069 997.111L991.142 995.97C1007.37 978.668 1002.27 974.443 996.239 972.565C994.623 971.936 993.201 970.891 992.118 969.537C991.035 968.183 990.328 966.567 990.069 964.853C989.504 962.323 989.279 959.729 989.398 957.14C989.398 951.037 989.398 949.897 986.984 950.434C984.569 950.97 974.309 963.176 964.383 962.975C959.085 962.975 957.677 958.012 956.604 951.373C956.201 946.209 955.732 938.832 955.061 932.327C953.72 918.042 949.294 909.324 959.756 903.958C968.34 899.8 967.468 912.006 966.462 918.042C966.462 919.182 966.462 920.188 965.992 921.127C965.322 925.285 975.516 936.149 976.387 937.826C977.259 939.502 985.106 939.838 990.136 942.99C991.244 943.533 992.181 944.371 992.844 945.412C993.506 946.453 993.869 947.657 993.891 948.891C993.891 953.452 1000.6 956.067 1008.51 957.476L1013.74 958.213C1016.89 958.213 1020.45 958.75 1023.13 958.817H1029.1C1040.17 958.817 1052.17 953.519 1051.5 975.784C1050.36 1007.77 1061.89 1003.15 1065.65 1002.01C1069.41 1000.87 1072.36 994.428 1071.42 998.385C1066.86 1013.51 1063.1 1028.87 1060.15 1044.39ZM922.602 783.914C921.78 783.792 920.971 783.589 920.188 783.31C913.481 781.231 911.805 777.073 908.653 773.452C906.416 771.076 903.434 769.538 900.203 769.092C889.271 767.55 884.577 777.207 875.121 774.256C873.915 773.847 872.748 773.33 871.633 772.714C864.122 768.556 869.152 758.295 875.121 749.174C878.407 744.144 881.827 739.45 883.839 736.365C889.137 727.781 897.587 714.703 905.769 715.642C913.951 716.581 904.897 735.761 912.878 740.389C913.779 740.716 914.754 740.783 915.691 740.581C916.628 740.38 917.489 739.918 918.176 739.249C918.893 738.824 919.567 738.329 920.188 737.773C922.798 735.661 924.521 732.645 925.016 729.323C927.9 721.343 935.009 722.617 940.106 725.702C945.203 728.787 936.35 742.87 948.086 763.794C959.823 784.718 936.149 786.596 922.602 783.914V783.914ZM1026.08 745.486C1025.2 745.78 1024.38 746.235 1023.67 746.827C1020.76 749.227 1018.22 752.053 1016.16 755.21L1014.28 758.027C1013.6 759.127 1013.04 760.296 1012.6 761.514C1012.42 763.029 1012.42 764.56 1012.6 766.074C1012.94 767.416 1013.47 769.025 1014.08 770.702C1017.13 776.791 1019.25 783.301 1020.38 790.016C1019.43 802.414 1017.32 814.696 1014.08 826.7C1013.54 828.981 1013 831.261 1012.4 833.407C1011.95 835.808 1010.7 837.985 1008.85 839.577C1004.49 842.863 997.647 840.113 991.812 837.028L990.471 836.224C987.788 834.547 985.709 832.803 983.765 831.663C977.662 827.505 985.24 818.25 990.471 809.13C991.842 806.747 992.966 804.23 993.824 801.618C997.11 790.419 994.227 782.438 995.769 759.033C997.177 743.138 1001.8 738.913 1008.85 735.359L1014.08 733.079C1015.89 732.274 1017.77 731.469 1019.71 730.463C1020.83 729.609 1022.11 728.972 1023.47 728.586V728.586C1026.67 727.299 1030.25 727.299 1033.46 728.586C1041.51 732.341 1028.5 744.949 1026.08 745.486Z" fill="url(#paint22_radial_328_20)"/>
<path d="M754.338 752.525C755.854 750.037 757.177 747.436 758.295 744.746C758.966 742.667 756.484 740.588 756.484 740.588C755.706 740.769 754.975 741.112 754.338 741.594C753.198 742.422 752.249 743.486 751.555 744.712C750.861 745.938 750.438 747.299 750.314 748.703C750.314 753.33 750.784 754.805 752.326 754.604C752.863 754.537 753.6 753.665 754.338 752.525Z" fill="url(#paint23_radial_328_20)"/>
<path d="M221.312 879.277C224.866 879.277 228.421 879.679 231.975 879.277C232.374 878.952 232.829 878.703 233.316 878.539C232.927 877.838 232.698 877.059 232.646 876.259C229.13 873.263 225.335 870.613 221.312 868.345C216.254 865.244 210.728 862.979 204.948 861.639C205.418 861.639 205.418 861.102 205.887 860.901C205.569 860.67 205.2 860.52 204.811 860.464C204.422 860.408 204.025 860.448 203.655 860.58C203.285 860.712 202.953 860.933 202.687 861.222C202.422 861.512 202.231 861.862 202.131 862.242C201.875 862.988 201.889 863.799 202.171 864.535C202.453 865.271 202.985 865.884 203.674 866.266C204.902 866.975 206.239 867.473 207.631 867.742C208.771 869.687 206.289 871.363 204.747 871.766C203.205 872.168 201.193 870.625 199.248 870.424C198.867 870.332 198.471 870.326 198.088 870.407C197.705 870.489 197.345 870.655 197.035 870.894C196.593 871.171 196.219 871.544 195.94 871.985C195.662 872.426 195.486 872.924 195.425 873.442L197.035 873.979C204.891 876.693 213.039 878.471 221.312 879.277V879.277Z" fill="url(#paint24_radial_328_20)"/>
<path d="M192.877 861.914C194.017 862.317 195.961 862.518 196.632 861.914C197.193 861.623 197.645 861.16 197.923 860.593C198.2 860.025 198.289 859.384 198.175 858.762C197.705 858.226 197.705 857.823 197.303 857.421L196.632 856.818C192.273 852.257 188.45 847.898 184.225 843.405C181.634 840.234 178.555 837.495 175.105 835.29C173.824 834.554 172.411 834.076 170.947 833.882C168.733 833.278 166.252 833.882 164.71 832.54C161.826 831.199 160.283 826.236 156.729 825.834C153.175 825.431 151.23 828.114 147.876 828.852C145.865 829.455 143.651 828.449 141.707 828.852C139.762 829.254 137.683 831.132 138.353 832.876C139.024 835.692 143.249 834.552 145.865 834.016C147.87 833.93 149.869 834.295 151.714 835.084C153.56 835.873 155.205 837.066 156.528 838.576C159.389 841.376 162.788 843.567 166.52 845.014C169.672 846.423 173.964 846.691 175.373 849.843V850.513C175.929 852.233 176.289 854.011 176.446 855.812C177.444 857.136 178.863 858.082 180.47 858.494C184.499 859.989 188.65 861.133 192.877 861.914V861.914Z" fill="url(#paint25_radial_328_20)"/>
<path d="M175.373 865.13C174.492 864.973 173.585 865.045 172.74 865.338C171.894 865.632 171.138 866.137 170.544 866.806C170.075 866.806 170.075 867.343 170.544 867.745C171.741 869.684 173.527 871.188 175.641 872.037C177.238 872.753 178.998 873.031 180.738 872.842C180.989 871.473 180.808 870.059 180.219 868.797C179.63 867.535 178.663 866.488 177.452 865.801C176.823 865.412 176.11 865.182 175.373 865.13V865.13Z" fill="url(#paint26_radial_328_20)"/>
<path d="M403.928 1082.82C401.167 1080.67 398.278 1078.7 395.276 1076.91L384.009 1070.21C375.962 1065.31 367.042 1059.95 360.068 1055.32C357.452 1053.58 355.172 1051.97 353.361 1050.56C351.074 1048.9 349.002 1046.96 347.191 1044.79C340.485 1036.74 339.412 1027.15 336.729 1016.49C335.576 1012.45 333.537 1008.71 330.761 1005.56C323.294 996.749 314.651 989.008 305.075 982.555C302.945 981.084 300.702 979.784 298.369 978.665C293.406 976.116 286.297 966.258 278.249 957.674C271.543 950.967 264.233 944.261 256.99 944.261C251.336 944.289 245.803 942.631 241.096 939.499C236.804 936.549 233.987 932.793 230.231 929.976C227.444 928.134 224.451 926.626 221.312 925.483C219.12 924.657 216.88 923.963 214.605 923.404C211.467 922.773 208.223 922.901 205.144 923.776C202.065 924.65 199.239 926.247 196.9 928.434L192.877 931.586C188.652 935.006 175.842 941.444 176.915 953.851C177.1 957.406 176.576 960.963 175.373 964.313C174.381 967.386 172.768 970.222 170.634 972.645C168.499 975.068 165.889 977.026 162.966 978.397C156.796 980.274 155.052 995.498 155.455 1000.26C155.857 1005.02 155.455 1020.38 160.753 1027.09C165.415 1035.18 169.668 1043.51 173.495 1052.03L175.373 1053.91C182.347 1061.15 189.523 1068.22 196.9 1075.1C204.814 1082.48 212.862 1089.66 221.178 1096.63C227.884 1102.06 234.59 1107.43 241.297 1112.66C253.368 1122 265.753 1130.95 278.45 1139.48C287.236 1145.25 296.222 1150.89 305.276 1156.25C314.33 1161.62 322.31 1166.11 330.962 1170.67C336.394 1173.55 341.893 1176.37 347.392 1179.12L360.403 1185.29C368.317 1188.98 376.297 1192.47 384.345 1195.82L395.612 1200.31L400.172 1202.06C400.641 1197.56 401.044 1192.26 401.647 1186.09C405.135 1160.61 408.354 1158.13 423.108 1134.32C437.862 1110.51 411.036 1088.92 403.928 1082.82Z" fill="url(#paint27_radial_328_20)"/>
<path d="M517.937 37.1551C518.836 36.1311 519.823 35.1886 520.888 34.3384C530.3 24.9578 539.082 14.9659 547.177 4.42773C537.318 5.56783 527.594 6.97617 517.937 8.58571C500.97 11.4024 484.405 15.2921 467.639 19.1148C467.543 20.2191 467.771 21.3274 468.295 22.3041C468.819 23.2808 469.616 24.0836 470.589 24.6141C479.71 29.0403 482.326 38.8987 470.589 52.781C461.244 64.9931 450.855 76.3698 439.539 86.7826C436.387 89.1969 433.704 90.5382 431.826 90.0687C425.12 88.3921 425.12 69.3459 418.414 80.5456C411.707 91.7453 413.317 94.8303 412.177 109.316C412.177 119.175 401.111 133.593 395.343 143.519C392.661 148.146 391.253 151.768 392.728 153.444C393.499 154.147 394.383 154.713 395.343 155.121C409.397 160.659 424.618 162.573 439.606 160.687C442.691 160.229 445.479 158.595 447.385 156.127C454.092 144.659 479.777 111.596 460.798 114.413C453.468 116.342 446.276 118.762 439.27 121.656C428.674 125.68 421.431 127.96 425.858 119.04C429.345 111.728 433.862 104.953 439.27 98.9212C445.373 92.2148 451.879 88.258 456.573 90.7394C465.493 95.7021 484.74 93.4219 491.379 81.8198C497.75 71.6261 507.207 48.623 517.937 37.1551Z" fill="url(#paint28_radial_328_20)"/>
<path d="M378.041 339.678C380.377 338.289 382.407 336.441 384.009 334.246C386.46 331.275 388.701 328.138 390.716 324.857C392.929 320.699 395.545 315.334 394.472 312.852C393.398 310.371 388.369 311.578 384.278 315.199C383.317 316.072 382.42 317.013 381.595 318.016C378.04 322.876 375.425 328.358 373.883 334.179C373.883 336.056 374.755 337.398 374.956 338.739C375.09 339.01 375.278 339.25 375.508 339.446C375.738 339.641 376.006 339.787 376.295 339.875C376.584 339.963 376.888 339.991 377.188 339.957C377.489 339.923 377.779 339.828 378.041 339.678V339.678Z" fill="url(#paint29_radial_328_20)"/>
<path d="M450.872 260.548C446.278 243.632 442.584 226.484 439.807 209.177V206.226C439.136 197.508 439.807 200.056 433.637 186.576C427.668 171.688 416.2 175.913 411.103 184.095C406.006 192.277 405.738 183.156 403.793 181.815C402.379 180.979 400.731 180.626 399.099 180.809L395.544 185.101C392.325 189.057 388.436 194.087 384.278 199.587C375.559 210.786 366.304 223.998 360.067 234.728C356.507 239.732 354.018 245.417 352.757 251.427C352.757 260.213 350.41 272.351 360.067 276.04C362.067 276.763 364.178 277.127 366.304 277.113C372.252 276.849 378.171 276.132 384.009 274.967C387.72 274.003 391.629 274.119 395.276 275.302C395.995 275.706 396.622 276.254 397.118 276.911C397.615 277.569 397.969 278.323 398.16 279.125C400.44 287.709 414.859 318.156 395.276 341.025C393.995 342.554 392.606 343.988 391.118 345.317C388.905 347.396 386.491 349.542 384.009 351.688C376.364 358.395 367.78 365.57 360.067 372.21C355.239 376.301 350.813 380.19 347.057 383.678C335.79 394.14 331.364 400.712 345.246 397.091L347.057 396.621C351.316 395.457 355.809 395.457 360.067 396.621C378.175 402.523 376.699 433.372 384.009 435.451C384.729 435.682 385.503 435.682 386.223 435.451C389.661 434.062 392.752 431.932 395.276 429.214C405.261 417.632 410.987 402.985 411.506 387.702C412.378 365.839 424.919 340.757 426.729 354.974C427.284 357.835 428.932 360.368 431.324 362.033C433.716 363.698 436.663 364.366 439.539 363.894C446.245 362.485 452.951 353.298 448.257 331.368C441.349 292.135 455.097 272.888 450.872 260.548Z" fill="url(#paint30_radial_328_20)"/>
<path fill-rule="evenodd" clip-rule="evenodd" d="M1242.16 621.082C1126.28 847.557 630.269 864.525 397.825 824.152C356.044 634.36 345.113 102.139 620.679 4.84838e-05H621.082C720.229 -0.039149 817.941 23.6896 906.028 69.1974C994.115 114.705 1070.01 180.666 1127.35 261.55L1130.1 265.44L1134.12 271.275C1204.08 374.558 1241.69 496.337 1242.16 621.082Z" fill="#414042"/>
<path fill-rule="evenodd" clip-rule="evenodd" d="M620.947 0.000115997C720.117 -0.0605274 817.856 23.658 905.968 69.1666C994.08 114.675 1070 180.647 1127.35 261.55L1130.1 265.44L1134.12 271.275C1203.18 373.215 1240.75 493.202 1242.16 616.32H620.947V0.000115997Z" fill="#58595B"/>
<path fill-rule="evenodd" clip-rule="evenodd" d="M1235.72 632.957C1098.31 853.598 664.539 868.218 397.825 824.157L621.014 616.258H1242.16C1241.29 622.234 1239.09 627.939 1235.72 632.957V632.957Z" fill="#6D6E71"/>
<path fill-rule="evenodd" clip-rule="evenodd" d="M1200.45 652.67C1060.96 840.45 624.971 847.894 412.244 810.942C382.668 627.857 370.664 117.834 620.679 21.7306H621.082C716.687 21.6733 810.914 44.5265 895.871 88.3759C980.828 132.225 1054.04 195.794 1109.38 273.758L1111.99 277.513L1115.95 283.214C1182.52 381.513 1218.74 497.207 1220.1 615.919C1215.59 629.154 1208.95 641.567 1200.45 652.67V652.67Z" fill="#C63E28"/>
<path fill-rule="evenodd" clip-rule="evenodd" d="M620.88 21.7306C716.486 21.6733 810.713 44.5265 895.67 88.3759C980.627 132.225 1053.84 195.794 1109.17 273.758L1111.79 277.513L1115.75 283.214C1182.33 381.532 1218.55 497.251 1219.9 615.986H620.88V21.7306Z" fill="#F05223"/>
<path fill-rule="evenodd" clip-rule="evenodd" d="M1198.5 655.081C1057.07 840.312 623.697 847.756 412.109 810.938L620.947 615.982H1220.1C1218.22 626.713 1205.95 645.289 1198.5 655.081Z" fill="#F4991E"/>
<path fill-rule="evenodd" clip-rule="evenodd" d="M986.917 618.6C918.779 751.991 630.403 758.496 493.257 734.688C475.284 622.892 467.974 311.312 620.679 252.631C679.079 252.598 736.637 266.555 788.535 293.333C840.434 320.111 885.164 358.931 918.98 406.543C919.517 407.348 920.053 408.086 920.523 408.891L922.937 412.311C964.306 473.18 986.582 545.004 986.917 618.6Z" fill="#C6802A"/>
<path fill-rule="evenodd" clip-rule="evenodd" d="M620.813 252.631C679.213 252.598 736.771 266.555 788.67 293.333C840.569 320.111 885.298 358.93 919.115 406.543C919.651 407.348 920.188 408.086 920.657 408.89L923.072 412.311C963.738 472.371 985.869 543.054 986.715 615.582H620.813V252.631Z" fill="#F49A1F"/>
<path fill-rule="evenodd" clip-rule="evenodd" d="M986.917 618.594C918.779 751.985 630.403 758.49 493.257 734.682L620.679 615.576H986.648C986.849 616.582 986.85 617.588 986.917 618.594Z" fill="#F5C61A"/>
<path fill-rule="evenodd" clip-rule="evenodd" d="M801.618 616.996C768.086 682.92 625.508 686.139 557.84 674.336C548.987 619.142 545.299 465.23 620.746 436.258C649.627 436.219 678.096 443.104 703.767 456.337C729.439 469.569 751.563 488.763 768.287 512.309L769.025 513.449L770.232 515.125C790.589 545.207 801.516 580.674 801.618 616.996V616.996Z" fill="url(#paint31_radial_328_20)"/>
</g>
<defs>
<radialGradient id="paint0_radial_328_20" cx="0" cy="0" r="1" gradientUnits="userSpaceOnUse" gradientTransform="translate(285.693 310.575) scale(817.177)">
<stop stop-color="#C7EAFB"/>
<stop offset="1" stop-color="#007CC4"/>
</radialGradient>
<radialGradient id="paint1_radial_328_20" cx="0" cy="0" r="1" gradientUnits="userSpaceOnUse" gradientTransform="translate(273.286 310.045) scale(669.099 669.099)">
<stop stop-color="#A6CE39"/>
<stop offset="1" stop-color="#00A651"/>
</radialGradient>
<radialGradient id="paint2_radial_328_20" cx="0" cy="0" r="1" gradientUnits="userSpaceOnUse" gradientTransform="translate(273.287 309.974) scale(669.1 669.099)">
<stop stop-color="#A6CE39"/>
<stop offset="1" stop-color="#00A651"/>
</radialGradient>
<radialGradient id="paint3_radial_328_20" cx="0" cy="0" r="1" gradientUnits="userSpaceOnUse" gradientTransform="translate(273.287 310.031) scale(669.032 669.032)">
<stop stop-color="#A6CE39"/>
<stop offset="1" stop-color="#00A651"/>
</radialGradient>
<radialGradient id="paint4_radial_328_20" cx="0" cy="0" r="1" gradientUnits="userSpaceOnUse" gradientTransform="translate(273.287 310.032) scale(669.032 669.032)">
<stop stop-color="#A6CE39"/>
<stop offset="1" stop-color="#00A651"/>
</radialGradient>
<radialGradient id="paint5_radial_328_20" cx="0" cy="0" r="1" gradientUnits="userSpaceOnUse" gradientTransform="translate(273.287 310.037) scale(669.032 669.032)">
<stop stop-color="#A6CE39"/>
<stop offset="1" stop-color="#00A651"/>
</radialGradient>
<radialGradient id="paint6_radial_328_20" cx="0" cy="0" r="1" gradientUnits="userSpaceOnUse" gradientTransform="translate(273.287 310.032) scale(669.032 669.032)">
<stop stop-color="#A6CE39"/>
<stop offset="1" stop-color="#00A651"/>
</radialGradient>
<radialGradient id="paint7_radial_328_20" cx="0" cy="0" r="1" gradientUnits="userSpaceOnUse" gradientTransform="translate(273.287 309.975) scale(669.033 669.032)">
<stop stop-color="#A6CE39"/>
<stop offset="1" stop-color="#00A651"/>
</radialGradient>
<radialGradient id="paint8_radial_328_20" cx="0" cy="0" r="1" gradientUnits="userSpaceOnUse" gradientTransform="translate(273.354 310.035) scale(668.898 668.898)">
<stop stop-color="#A6CE39"/>
<stop offset="1" stop-color="#00A651"/>
</radialGradient>
<radialGradient id="paint9_radial_328_20" cx="0" cy="0" r="1" gradientUnits="userSpaceOnUse" gradientTransform="translate(273.287 309.971) scale(669.033 669.032)">
<stop stop-color="#A6CE39"/>
<stop offset="1" stop-color="#00A651"/>
</radialGradient>
<radialGradient id="paint10_radial_328_20" cx="0" cy="0" r="1" gradientUnits="userSpaceOnUse" gradientTransform="translate(273.285 310.043) scale(669.034 669.032)">
<stop stop-color="#A6CE39"/>
<stop offset="1" stop-color="#00A651"/>
</radialGradient>
<radialGradient id="paint11_radial_328_20" cx="0" cy="0" r="1" gradientUnits="userSpaceOnUse" gradientTransform="translate(273.22 310.108) scale(669.032 669.032)">
<stop stop-color="#A6CE39"/>
<stop offset="1" stop-color="#00A651"/>
</radialGradient>
<radialGradient id="paint12_radial_328_20" cx="0" cy="0" r="1" gradientUnits="userSpaceOnUse" gradientTransform="translate(273.287 310.035) scale(669.031 669.032)">
<stop stop-color="#A6CE39"/>
<stop offset="1" stop-color="#00A651"/>
</radialGradient>
<radialGradient id="paint13_radial_328_20" cx="0" cy="0" r="1" gradientUnits="userSpaceOnUse" gradientTransform="translate(273.287 309.971) scale(669.032 669.032)">
<stop stop-color="#A6CE39"/>
<stop offset="1" stop-color="#00A651"/>
</radialGradient>
<radialGradient id="paint14_radial_328_20" cx="0" cy="0" r="1" gradientUnits="userSpaceOnUse" gradientTransform="translate(273.286 310.034) scale(668.965 668.966)">
<stop stop-color="#A6CE39"/>
<stop offset="1" stop-color="#00A651"/>
</radialGradient>
<radialGradient id="paint15_radial_328_20" cx="0" cy="0" r="1" gradientUnits="userSpaceOnUse" gradientTransform="translate(273.287 310.04) scale(669.032 669.032)">
<stop stop-color="#A6CE39"/>
<stop offset="1" stop-color="#00A651"/>
</radialGradient>
<radialGradient id="paint16_radial_328_20" cx="0" cy="0" r="1" gradientUnits="userSpaceOnUse" gradientTransform="translate(273.22 309.968) scale(669.099 669.099)">
<stop stop-color="#A6CE39"/>
<stop offset="1" stop-color="#00A651"/>
</radialGradient>
<radialGradient id="paint17_radial_328_20" cx="0" cy="0" r="1" gradientUnits="userSpaceOnUse" gradientTransform="translate(273.287 310.042) scale(669.032 669.032)">
<stop stop-color="#A6CE39"/>
<stop offset="1" stop-color="#00A651"/>
</radialGradient>
<radialGradient id="paint18_radial_328_20" cx="0" cy="0" r="1" gradientUnits="userSpaceOnUse" gradientTransform="translate(273.287 310.038) scale(669.032 669.032)">
<stop stop-color="#A6CE39"/>
<stop offset="1" stop-color="#00A651"/>
</radialGradient>
<radialGradient id="paint19_radial_328_20" cx="0" cy="0" r="1" gradientUnits="userSpaceOnUse" gradientTransform="translate(273.286 309.967) scale(669.033 669.032)">
<stop stop-color="#A6CE39"/>
<stop offset="1" stop-color="#00A651"/>
</radialGradient>
<radialGradient id="paint20_radial_328_20" cx="0" cy="0" r="1" gradientUnits="userSpaceOnUse" gradientTransform="translate(273.287 309.975) scale(669.032 669.032)">
<stop stop-color="#A6CE39"/>
<stop offset="1" stop-color="#00A651"/>
</radialGradient>
<radialGradient id="paint21_radial_328_20" cx="0" cy="0" r="1" gradientUnits="userSpaceOnUse" gradientTransform="translate(273.487 309.838) scale(669.033 669.033)">
<stop stop-color="#A6CE39"/>
<stop offset="1" stop-color="#00A651"/>
</radialGradient>
<radialGradient id="paint22_radial_328_20" cx="0" cy="0" r="1" gradientUnits="userSpaceOnUse" gradientTransform="translate(273.286 310.038) scale(669.032 669.032)">
<stop stop-color="#A6CE39"/>
<stop offset="1" stop-color="#00A651"/>
</radialGradient>
<radialGradient id="paint23_radial_328_20" cx="0" cy="0" r="1" gradientUnits="userSpaceOnUse" gradientTransform="translate(273.42 310.037) scale(668.9 668.897)">
<stop stop-color="#A6CE39"/>
<stop offset="1" stop-color="#00A651"/>
</radialGradient>
<radialGradient id="paint24_radial_328_20" cx="0" cy="0" r="1" gradientUnits="userSpaceOnUse" gradientTransform="translate(273.287 310.104) scale(668.965 668.965)">
<stop stop-color="#A6CE39"/>
<stop offset="1" stop-color="#00A651"/>
</radialGradient>
<radialGradient id="paint25_radial_328_20" cx="0" cy="0" r="1" gradientUnits="userSpaceOnUse" gradientTransform="translate(273.287 310.043) scale(669.032 669.033)">
<stop stop-color="#A6CE39"/>
<stop offset="1" stop-color="#00A651"/>
</radialGradient>
<radialGradient id="paint26_radial_328_20" cx="0" cy="0" r="1" gradientUnits="userSpaceOnUse" gradientTransform="translate(273.22 310.109) scale(668.898 668.896)">
<stop stop-color="#A6CE39"/>
<stop offset="1" stop-color="#00A651"/>
</radialGradient>
<radialGradient id="paint27_radial_328_20" cx="0" cy="0" r="1" gradientUnits="userSpaceOnUse" gradientTransform="translate(273.287 310.035) scale(669.032 669.032)">
<stop stop-color="#A6CE39"/>
<stop offset="1" stop-color="#00A651"/>
</radialGradient>
<radialGradient id="paint28_radial_328_20" cx="0" cy="0" r="1" gradientUnits="userSpaceOnUse" gradientTransform="translate(273.287 310.039) scale(669.032 669.032)">
<stop stop-color="#A6CE39"/>
<stop offset="1" stop-color="#00A651"/>
</radialGradient>
<radialGradient id="paint29_radial_328_20" cx="0" cy="0" r="1" gradientUnits="userSpaceOnUse" gradientTransform="translate(273.287 310.035) scale(668.965 668.965)">
<stop stop-color="#A6CE39"/>
<stop offset="1" stop-color="#00A651"/>
</radialGradient>
<radialGradient id="paint30_radial_328_20" cx="0" cy="0" r="1" gradientUnits="userSpaceOnUse" gradientTransform="translate(273.286 310.041) scale(669.033 669.032)">
<stop stop-color="#A6CE39"/>
<stop offset="1" stop-color="#00A651"/>
</radialGradient>
<radialGradient id="paint31_radial_328_20" cx="0" cy="0" r="1" gradientUnits="userSpaceOnUse" gradientTransform="translate(677.415 558.248) scale(172.154)">
<stop stop-color="white"/>
<stop offset="1" stop-color="#FFF200"/>
</radialGradient>
<clipPath id="clip0_328_20">
<rect width="1242.16" height="1242.23" fill="white"/>
</clipPath>
</defs>
</svg>
